<?xml version="1.0" encoding="utf-8"?>
<svg fill="#00aa00" viewBox="0 0 500 500" xmlns="http://www.w3.org/2000/svg">
  <g transform="matrix(1.821753, 0, 0, 1.866901, -216.725433, -346.577179)" style="">
    <g>
      <g>
        <path d="M 135.967 363.751 C 143.955 363.751 150.457 357.252 150.457 349.268 C 150.457 347.606 150.117 346.038 149.601 344.551 L 176.658 322.917 C 178.875 324.294 181.47 325.129 184.267 325.129 C 188.163 325.129 191.688 323.563 194.292 321.06 L 218.249 333.028 C 218.183 333.61 218.077 334.181 218.077 334.784 C 218.077 342.769 224.576 349.268 232.566 349.268 C 240.554 349.268 247.056 342.769 247.056 334.784 C 247.056 333.448 246.814 332.177 246.472 330.947 L 272.47 312.755 C 274.848 314.45 277.73 315.473 280.866 315.473 C 285.189 315.473 289.033 313.533 291.689 310.52 L 314.733 319.73 C 314.723 319.924 314.676 320.107 314.676 320.301 C 314.676 328.285 321.176 334.784 329.166 334.784 C 337.154 334.784 343.656 328.285 343.656 320.301 C 343.656 318.639 343.317 317.071 342.8 315.584 L 369.858 293.95 C 372.075 295.327 374.669 296.161 377.466 296.161 C 385.454 296.161 391.956 289.662 391.956 281.678 C 391.956 273.694 385.454 267.194 377.466 267.194 C 369.476 267.194 362.976 273.694 362.976 281.678 C 362.976 283.34 363.313 284.907 363.83 286.395 L 336.772 308.028 C 334.555 306.652 331.961 305.817 329.166 305.817 C 324.843 305.817 320.997 307.757 318.341 310.77 L 295.297 301.56 C 295.307 301.367 295.356 301.183 295.356 300.989 C 295.356 293.005 288.854 286.506 280.866 286.506 C 272.876 286.506 266.376 293.005 266.376 300.989 C 266.376 302.326 266.617 303.597 266.954 304.827 L 240.955 323.019 C 238.583 321.324 235.701 320.301 232.566 320.301 C 228.668 320.301 225.142 321.866 222.539 324.37 L 198.582 312.401 C 198.648 311.819 198.757 311.249 198.757 310.645 C 198.757 302.661 192.255 296.161 184.267 296.161 C 176.276 296.161 169.777 302.661 169.777 310.645 C 169.777 312.307 170.114 313.875 170.63 315.362 L 143.573 336.996 C 141.356 335.619 138.761 334.784 135.967 334.784 C 127.977 334.784 121.477 341.284 121.477 349.268 C 121.477 357.252 127.977 363.751 135.967 363.751 Z M 377.466 276.85 C 380.131 276.85 382.296 279.014 382.296 281.678 C 382.296 284.342 380.131 286.506 377.466 286.506 C 374.799 286.506 372.636 284.342 372.636 281.678 C 372.636 279.014 374.799 276.85 377.466 276.85 Z M 329.166 315.473 C 331.831 315.473 333.996 317.637 333.996 320.301 C 333.996 322.965 331.831 325.129 329.166 325.129 C 326.499 325.129 324.336 322.965 324.336 320.301 C 324.336 317.637 326.499 315.473 329.166 315.473 Z M 280.866 296.161 C 283.531 296.161 285.696 298.326 285.696 300.989 C 285.696 303.653 283.531 305.817 280.866 305.817 C 278.199 305.817 276.036 303.653 276.036 300.989 C 276.036 298.326 278.199 296.161 280.866 296.161 Z M 232.566 329.956 C 235.231 329.956 237.396 332.121 237.396 334.784 C 237.396 337.448 235.231 339.612 232.566 339.612 C 229.899 339.612 227.736 337.448 227.736 334.784 C 227.736 332.121 229.899 329.956 232.566 329.956 Z M 184.267 305.817 C 186.932 305.817 189.097 307.981 189.097 310.645 C 189.097 313.309 186.932 315.473 184.267 315.473 C 181.599 315.473 179.437 313.309 179.437 310.645 C 179.437 307.981 181.599 305.817 184.267 305.817 Z M 135.967 344.44 C 138.632 344.44 140.797 346.604 140.797 349.268 C 140.797 351.932 138.632 354.096 135.967 354.096 C 133.299 354.096 131.137 351.932 131.137 349.268 C 131.137 346.604 133.299 344.44 135.967 344.44 Z M 135.967 344.44"/>
      </g>
    </g>
  </g>
</svg>