<?xml version="1.0" encoding="iso-8859-1"?>
<!-- Generator: Adobe Illustrator 19.0.0, SVG Export Plug-In . SVG Version: 6.00 Build 0)  -->
<svg fill="#aa00aa" xmlns="http://www.w3.org/2000/svg" xmlns:xlink="http://www.w3.org/1999/xlink" version="1.1" id="Layer_1" x="0px" y="0px" viewBox="0 0 512 512" style="enable-background:new 0 0 512 512;" xml:space="preserve" width="512" height="512">
<g>
	<path d="M485.584,107.568C501.055,101.308,512,86.155,512,68.489c0-23.244-18.938-42.155-42.216-42.155   c-23.277,0-42.215,18.911-42.215,42.155c0,17.659,10.935,32.807,26.395,39.072c-14.233,6.133-24.225,20.295-24.225,36.752v21.087   c-16.285-21.1-36.339-39.159-59.312-53.178c-2.792-1.704-5.622-3.336-8.479-4.909V81.194c0-8.284-6.716-15-15-15s-15,6.716-15,15   v12.425C312.402,86.418,291.887,82.012,271,80.585V61.235c0-8.284-6.716-15-15-15s-15,6.716-15,15v19.351   c-20.887,1.427-41.403,5.833-60.949,13.034V81.194c0-8.284-6.716-15-15-15s-15,6.716-15,15v26.118   c-2.857,1.573-5.686,3.205-8.479,4.909c-22.973,14.019-43.026,32.078-59.312,53.178v-21.087c0-16.45-9.984-30.607-24.245-36.744   c15.47-6.26,26.415-21.413,26.415-39.079c0-23.244-18.938-42.155-42.215-42.155C18.938,26.334,0,45.244,0,68.489   c0,17.659,10.935,32.807,26.396,39.072c-14.233,6.133-24.225,20.295-24.225,36.752v326.354c0,8.284,6.716,15,15,15h50.09   c8.284,0,15-6.716,15-15v-30.077h347.479v30.077c0,8.284,6.716,15,15,15h50.09c8.284,0,15-6.716,15-15V144.312   C509.829,127.862,499.846,113.705,485.584,107.568z M271,410.589V309.406h60.949v101.184H271z M180.051,410.589V309.406H241   v101.184H180.051z M82.261,309.406h67.79v101.184h-67.79V309.406z M361.949,309.406h67.79v101.184h-67.79V309.406z    M424.555,212.925l5.185,10.11v56.371h-67.79V142.259C387.942,159.765,409.625,183.812,424.555,212.925z M331.949,125.804v153.601   H271V110.662C292.345,112.326,312.897,117.512,331.949,125.804z M241,110.662v168.743h-60.949V125.804   C199.103,117.512,219.655,112.326,241,110.662z M87.445,212.925c14.93-29.113,36.612-53.16,62.605-70.665v137.146h-67.79v-56.371   L87.445,212.925z"/>
</g>















</svg>
