<svg id="Layer_1" enable-background="new 0 0 512 512" height="512" viewBox="0 0 512 512" width="512" xmlns="http://www.w3.org/2000/svg"><g><path d="m479 407.833h-446c-2.209 0-4-1.791-4-4v-38.001c0-2.209 1.791-4 4-4h446c2.209 0 4 1.791 4 4v38.001c0 2.209-1.791 4-4 4z" fill="#d2d5d4"/><path d="m479 361.833h-30c2.209 0 4 1.791 4 4v38c0 2.209-1.791 4-4 4h30c2.209 0 4-1.791 4-4v-38c0-2.209-1.791-4-4-4z" fill="#c7c9c8"/><path d="m423.158 453.834h-334.316c-10.149 0-18.377-8.228-18.377-18.377v-27.623h371.07v27.623c0 10.149-8.228 18.377-18.377 18.377z" fill="#497285"/><path d="m411.535 407.834v27.623c0 10.149-8.228 18.377-18.377 18.377h30c10.149 0 18.377-8.228 18.377-18.377v-27.623z" fill="#426778"/><path d="m437.535 53.5h-363.07c-2.209 0-4-1.791-4-4v-38c0-2.209 1.791-4 4-4h363.07c2.209 0 4 1.791 4 4v38c0 2.209-1.791 4-4 4z" fill="#d2d5d4"/><path d="m437.535 7.5h-30c2.209 0 4 1.791 4 4v38c0 2.209-1.791 4-4 4h30c2.209 0 4-1.791 4-4v-38c0-2.209-1.791-4-4-4z" fill="#c7c9c8"/><path d="m463.6 362.333h-415.2l30.562-308.833h354.076z" fill="#ef483c"/><path d="m433.038 53.5h-30l30.562 308.833h30z" fill="#de4135"/><path d="m194.331 453.834h123.337v50.666h-123.337z" fill="#d2d5d4"/><path d="m287.669 453.834h30v50.666h-30z" fill="#c7c9c8"/><path d="m479 354.333h-8.656l-3.769-38.08c-.408-4.122-4.08-7.138-8.202-6.726-4.122.408-7.133 4.08-6.725 8.202l3.622 36.604h-37.43l-15.929-293.333h24.332l22.24 224.729c.407 4.122 4.068 7.128 8.202 6.726 4.122-.408 7.133-4.08 6.725-8.202l-22.156-223.882c4.519-1.551 7.781-5.833 7.781-10.871v-38c0-6.341-5.159-11.5-11.5-11.5h-274.996c-4.142 0-7.5 3.357-7.5 7.5s3.358 7.5 7.5 7.5h271.497v31h-356.071v-31h52.676c4.142 0 7.5-3.357 7.5-7.5s-3.358-7.5-7.5-7.5h-56.176c-6.341 0-11.5 5.159-11.5 11.5v38c0 5.038 3.262 9.32 7.781 10.871l-29.091 293.962h-8.655c-6.341 0-11.5 5.159-11.5 11.5v38c0 6.341 5.159 11.5 11.5 11.5h29.965v20.124c0 14.269 11.608 25.877 25.877 25.877h39.081c4.142 0 7.5-3.357 7.5-7.5s-3.358-7.5-7.5-7.5h-39.081c-5.998 0-10.877-4.88-10.877-10.877v-20.123h356.07v20.123c0 5.997-4.879 10.877-10.877 10.877h-263.081c-4.142 0-7.5 3.357-7.5 7.5s3.358 7.5 7.5 7.5h26.754v43.166c0 4.143 3.358 7.5 7.5 7.5h123.337c4.142 0 7.5-3.357 7.5-7.5v-43.166h97.99c14.269 0 25.877-11.608 25.877-25.877v-20.124h29.965c6.341 0 11.5-5.159 11.5-11.5v-38c0-6.341-5.159-11.5-11.5-11.5zm-168.832 142.667h-108.336v-35.666h108.337v35.666zm-153.94-436-10.62 293.333h-36.428l15.93-293.333zm158.716 293.333-5.31-293.333h31.128l10.62 293.333zm-15.002 0h-36.442v-293.333h31.132zm-51.442 0h-36.442l5.31-293.333h31.132zm-51.444 0h-36.437l10.619-293.333h31.128zm205.764 0h-36.428l-10.62-293.333h31.118zm-317.063-293.333h24.332l-15.93 293.333h-37.43zm389.743 339.333h-439v-31h9.236c.843.321 1.743.5 2.664.5h415.2c.922 0 1.821-.179 2.664-.5h9.236z"/></g></svg>