<?xml version="1.0" encoding="utf-8"?>
<svg 
   width="40"
   height="30"
   viewBox="0 0 500 500" 
   xmlns="http://www.w3.org/2000/svg">
  <g id="svgg" transform="matrix(1, 0, 0, 1, 23.192019, 95.277664)">
    <path id="path0" d="M 233.234 139.5 L 233.234 21.626 L 353.873 21.626 C 460.163 21.626 474.512 21.677 474.512 22.053 C 474.512 22.289 474.313 24.083 474.067 26.041 C 473.822 27.997 473.498 30.772 473.347 32.208 C 473.194 33.643 472.649 37.166 472.134 40.035 C 471.62 42.907 470.729 47.929 470.155 51.199 C 466.661 71.072 460.381 96.289 455.254 111.036 C 454.47 113.287 453.226 117.021 452.486 119.334 C 449.921 127.352 442.921 144.922 439.317 152.384 C 432.401 166.707 432.079 167.317 426.821 176.015 C 397.587 224.376 365.832 249.044 324.592 255.428 C 316.32 256.705 314.017 256.775 274.345 256.913 C 253.474 256.984 235.685 257.119 234.815 257.209 L 233.234 257.377 L 233.234 139.5" stroke="none" fill="#070" fill-rule="evenodd" style="" transform="matrix(-1, 0, 0, -1, 707.745987, 279.003006)"/>
    <path id="path-1" d="M -15.685 138.937 L -15.685 257.526 L 113.763 257.526 C 227.822 257.526 243.216 257.475 243.216 257.096 C 243.216 256.859 243.001 255.054 242.741 253.084 C 242.477 251.116 242.129 248.325 241.966 246.88 C 241.799 245.436 241.218 241.892 240.664 239.005 C 240.113 236.116 239.159 231.064 238.542 227.774 C 234.793 207.78 228.055 182.41 222.554 167.574 C 221.708 165.309 220.375 161.553 219.584 159.226 C 216.828 151.159 209.315 133.483 205.451 125.975 C 198.028 111.566 197.684 110.952 192.043 102.201 C 160.673 53.547 126.596 28.729 82.346 22.307 C 73.469 21.022 70.999 20.952 28.43 20.813 C 6.034 20.741 -13.053 20.605 -13.986 20.515 L -15.685 20.346 L -15.685 138.937" stroke="none" fill="#070" fill-rule="evenodd" style=""/>
  </g>
</svg>