<svg id="Capa_1" fill="#008888" enable-background="new 0 0 512 512" height="512" viewBox="0 0 512 512" width="512" xmlns="http://www.w3.org/2000/svg"><g><path d="m463.8 104.889v-25.622c0-30.419-24.747-55.167-55.166-55.167h-305.267c-30.419 0-55.167 24.748-55.167 55.167v25.622c-27.14 3.437-48.2 26.653-48.2 54.711v273.134c0 30.419 24.747 55.166 55.165 55.166h401.668c30.419 0 55.167-24.748 55.167-55.167v-273.133c0-28.058-21.06-51.273-48.2-54.711zm-78.199 47.744h-18.2v-18.199h18.2zm-48.201 0h-18.2v-18.199h18.2zm-48.2 0h-18.2v-18.199h18.2zm-48.2 0h-18.2v-18.199h18.2zm-48.2 0h-18.199v-18.199h18.199zm-48.199 0h-18.2v-18.199h18.2zm-48.201 0h-18.2v-18.199h18.2zm319.201-18.199h18.199v18.199h-18.199zm-312.234-80.334h305.267c13.877 0 25.166 11.29 25.166 25.167v25.167h-33.199-48.2-48.2-48.201-48.2-48.199-48.2-33.201v-25.167c0-13.877 11.29-25.167 25.167-25.167zm-55.167 81.322v32.211c0 8.284 6.716 15 15 15h48.2 48.2 48.2 48.2 48.2 48.2 48.2 48.2c8.284 0 15-6.716 15-15v-32.211c10.498 3.03 18.2 12.718 18.2 24.178v41.234h-452v-41.234c0-11.46 7.703-21.149 18.2-24.178zm408.633 322.478h-401.668c-13.876 0-25.165-11.29-25.165-25.167v-201.899h452v201.899c0 13.877-11.29 25.167-25.167 25.167z"/><path d="m368.467 249.033c-28.342 0-53.83 12.436-71.307 32.134h-82.319c-17.477-19.697-42.965-32.134-71.308-32.134-52.567 0-95.333 42.767-95.333 95.334s42.766 95.333 95.333 95.333c28.342 0 53.831-12.436 71.308-32.134h82.318c17.477 19.697 42.966 32.134 71.308 32.134 52.566 0 95.333-42.766 95.333-95.333s-42.767-95.334-95.333-95.334zm-224.934 160.667c-36.025 0-65.333-29.308-65.333-65.333s29.308-65.334 65.333-65.334 65.334 29.309 65.334 65.334-29.308 65.333-65.334 65.333zm89.367-32.134c3.855-10.344 5.967-21.529 5.967-33.199 0-11.671-2.112-22.856-5.968-33.2h46.202c-3.855 10.344-5.968 21.529-5.968 33.2 0 11.67 2.112 22.855 5.968 33.199zm135.567 32.134c-36.024 0-65.333-29.308-65.333-65.333s29.309-65.334 65.333-65.334 65.333 29.309 65.333 65.334-29.309 65.333-65.333 65.333z"/><path d="m143.533 297.233c-25.989 0-47.133 21.144-47.133 47.134 0 25.989 21.143 47.133 47.133 47.133s47.134-21.144 47.134-47.133c0-25.99-21.144-47.134-47.134-47.134zm0 64.267c-9.447 0-17.133-7.685-17.133-17.133s7.686-17.134 17.133-17.134c9.448 0 17.134 7.686 17.134 17.134s-7.686 17.133-17.134 17.133z"/><path d="m368.467 297.233c-25.989 0-47.134 21.144-47.134 47.134 0 25.989 21.145 47.133 47.134 47.133s47.134-21.144 47.134-47.133c0-25.99-21.145-47.134-47.134-47.134zm0 64.267c-9.447 0-17.134-7.685-17.134-17.133s7.686-17.134 17.134-17.134 17.134 7.686 17.134 17.134-7.687 17.133-17.134 17.133z"/></g></svg>