<?xml version="1.0" encoding="utf-8"?>
<svg 
  width="40"
  height="30"
  viewBox="0 0 500 500" xmlns="http://www.w3.org/2000/svg">
  <g id="svgg" transform="matrix(1, 0, 0, 1, 23.192019, 95.277664)">
    <path id="path0" d="M 17.443 148.789 L 17.443 30.2 L 135.938 30.2 C 240.34 30.2 254.434 30.251 254.434 30.63 C 254.434 30.867 254.238 32.672 253.997 34.642 C 253.756 36.61 253.438 39.401 253.289 40.846 C 253.139 42.29 252.604 45.834 252.098 48.721 C 251.593 51.61 250.718 56.662 250.154 59.952 C 246.722 79.946 240.554 105.316 235.518 120.152 C 234.748 122.417 233.526 126.173 232.799 128.5 C 230.28 136.567 223.404 154.243 219.864 161.751 C 213.071 176.16 212.755 176.774 207.59 185.525 C 178.876 234.179 147.685 258.997 107.178 265.419 C 99.053 266.704 96.791 266.774 57.824 266.913 C 37.323 266.985 19.85 267.121 18.996 267.211 L 17.443 267.38 L 17.443 148.789" stroke="none" fill="#070" fill-rule="evenodd" style="" transform="matrix(-1, 0, 0, -1, 271.877029, 297.580009)"/>
    <path id="path-1" d="M 177.241 148.941 L 177.241 267.53 L 306.689 267.53 C 420.748 267.53 436.142 267.479 436.142 267.1 C 436.142 266.863 435.927 265.058 435.667 263.088 C 435.403 261.12 435.055 258.329 434.892 256.884 C 434.725 255.44 434.144 251.896 433.59 249.009 C 433.039 246.12 432.085 241.068 431.468 237.778 C 427.719 217.784 420.981 192.414 415.48 177.578 C 414.634 175.313 413.301 171.557 412.51 169.23 C 409.754 161.163 402.241 143.487 398.377 135.979 C 390.954 121.57 390.61 120.956 384.969 112.205 C 353.599 63.551 319.522 38.733 275.272 32.311 C 266.395 31.026 263.925 30.956 221.356 30.817 C 198.96 30.745 179.873 30.609 178.94 30.519 L 177.241 30.35 L 177.241 148.941" stroke="none" fill="#070" fill-rule="evenodd" style=""/>
  </g>
</svg>