<?xml version="1.0" encoding="UTF-8" standalone="no"?>
<svg
   xmlns:dc="http://purl.org/dc/elements/1.1/"
   xmlns:cc="http://web.resource.org/cc/"
   xmlns:rdf="http://www.w3.org/1999/02/22-rdf-syntax-ns#"
   xmlns:svg="http://www.w3.org/2000/svg"
   xmlns="http://www.w3.org/2000/svg"
   xmlns:xlink="http://www.w3.org/1999/xlink"
   width="40"
   height="30"
   viewBox="0 0 1000 750">
  <g
     style="fill:none;color:red;stroke:#ff03ff;stroke-width:40;stroke-miterlimit:4;stroke-dasharray:none;stroke-linecap:round;stroke-linejoin:round;stroke-opacity:1"
     id="g2485">
    <path
       style="stroke-width:40;stroke-miterlimit:4;stroke-dasharray:none;stroke-linecap:round;stroke-linejoin:round;stroke:#ff03ff;stroke-opacity:1" 
       d="M 653,373 C 675.27639,320.71108 696.90143,268.03138 724.2807,218.13646 C 739.48867,191.81355 757.08039,164.86427 783,148 C 806.95433,133.37759 836.03193,147.18169 851.84851,167.27612 C 881.56893,199.63153 899.34329,240.26791 918.50854,279.24119 C 931.82635,310.57273 946.12628,341.48847 959,373"
       id="path14067" />
    <path
       style="stroke-width:40;stroke-miterlimit:4;stroke-dasharray:none;stroke-linecap:round;stroke-linejoin:round;stroke:#ff03ff;stroke-opacity:1" 
       d="M 347.03125,372.9375 C 372.3392,313.51879 396.64094,253.33383 430,197.84375 C 448.37767,174.52639 467.30448,142.11751 500.75293,141.84375 C 534.05361,143.45344 552.76315,175.82801 570.98662,199.48812 C 603.83919,254.50918 627.87226,314.06732 653,372.84375"
       id="path14065" />
    <path
       style="stroke-width:40;stroke-miterlimit:4;stroke-dasharray:none;stroke-linecap:round;stroke-linejoin:round;stroke:#ff03ff;stroke-opacity:1" 
       d="M 41,373 C 63.276385,320.71108 84.901427,268.03138 112.2807,218.13646 C 127.48867,191.81355 145.08039,164.86427 171,148 C 194.95433,133.37759 224.03193,147.18169 239.84851,167.27612 C 269.56893,199.63153 287.34329,240.26791 306.50854,279.24119 C 319.82635,310.57273 334.12628,341.48847 347,373"
       id="path2487" />
  </g>
</svg>