<?xml version="1.0" encoding="utf-8"?>
<svg 
   width="40"
   height="30"
   viewBox="0 0 500 500"
  xmlns="http://www.w3.org/2000/svg">
  <g id="svgg" transform="matrix(1, 0, 0, 1, 23.192019, 95.277664)">
    <path id="path0" d="M -13.997 148.789 L -13.997 30.2 L 230.256 30.2 C 445.46 30.2 474.513 30.251 474.513 30.63 C 474.513 30.867 474.108 32.672 473.612 34.642 C 473.115 36.61 472.46 39.401 472.153 40.846 C 471.844 42.29 470.74 45.834 469.697 48.721 C 468.657 51.61 466.853 56.662 465.691 59.952 C 458.616 79.946 445.902 105.316 435.521 120.152 C 433.934 122.417 431.414 126.173 429.917 128.5 C 424.724 136.567 410.55 154.243 403.254 161.751 C 389.252 176.16 388.599 176.774 377.953 185.525 C 318.765 234.179 254.471 258.997 170.974 265.419 C 154.226 266.704 149.562 266.774 69.241 266.913 C 26.981 266.985 -9.036 267.121 -10.796 267.211 L -13.997 267.38 L -13.997 148.789" stroke="none" fill="#070" fill-rule="evenodd" style="" transform="matrix(-1, 0, 0, -1, 460.51601, 297.580009)"/>
  </g>
</svg>