<?xml version="1.0" encoding="utf-8"?>
<svg 
   width="40"
   height="30"
   viewBox="0 0 500 500" 
   xmlns="http://www.w3.org/2000/svg">
  <g id="svgg" transform="matrix(1, 0, 0, 1, 23.192019, 95.277664)">
    <path id="path0" d="M -19.95 148.791 L -19.95 267.38 L 225.256 267.38 C 441.297 267.38 470.462 267.329 470.462 266.95 C 470.462 266.713 470.055 264.908 469.558 262.938 C 469.06 260.97 468.401 258.179 468.092 256.734 C 467.782 255.29 466.674 251.746 465.627 248.859 C 464.583 245.97 462.772 240.918 461.604 237.628 C 454.504 217.634 441.741 192.264 431.318 177.428 C 429.727 175.163 427.195 171.407 425.692 169.08 C 420.478 161.013 406.25 143.337 398.925 135.829 C 384.869 121.42 384.214 120.806 373.526 112.055 C 314.108 63.401 249.564 38.583 165.74 32.161 C 148.929 30.876 144.246 30.806 63.611 30.667 C 21.188 30.595 -14.968 30.459 -16.737 30.369 L -19.95 30.2 L -19.95 148.791" stroke="none" fill="#070" fill-rule="evenodd" style=""/>
  </g>
</svg>