<svg id="Capa_1" enable-background="new 0 0 512 512" height="512" viewBox="0 0 512 512" width="512" xmlns="http://www.w3.org/2000/svg" xmlns:xlink="http://www.w3.org/1999/xlink"><linearGradient id="SVGID_1_" gradientUnits="userSpaceOnUse" x1="256" x2="256" y1="512" y2="0"><stop offset="0" stop-color="#fd3a84"/><stop offset="1" stop-color="#ffa68d"/></linearGradient><g><g><path d="m466 482h-15v-47c0-3.978-1.581-7.793-4.394-10.607l-40.653-40.653c26.486-11.586 45.047-38.03 45.047-68.74v-180c0-36.219-25.808-66.522-60-73.491v-46.509c0-8.284-6.716-15-15-15h-240c-8.284 0-15 6.716-15 15v46.509c-34.192 6.969-60 37.272-60 73.491v180c0 30.71 18.561 57.154 45.047 68.74l-40.653 40.653c-2.813 2.814-4.394 6.629-4.394 10.607v47h-15c-8.284 0-15 6.716-15 15s6.716 15 15 15h60c8.284 0 15-6.716 15-15s-6.716-15-15-15h-15v-40.787l51.213-51.213h98.787v92h-15c-8.284 0-15 6.716-15 15s6.716 15 15 15h60c8.284 0 15-6.716 15-15s-6.716-15-15-15h-15v-92h98.787l51.213 51.213v40.787h-15c-8.284 0-15 6.716-15 15s6.716 15 15 15h60c8.284 0 15-6.716 15-15s-6.716-15-15-15zm-45-212h-120v-90h120zm-270-240h210v30h-210zm-60 150h120v90h-120zm44.998 180c-24.812-.001-44.998-20.187-44.998-45v-15h135c8.284 0 15-6.716 15-15v-120c0-8.284-6.716-15-15-15h-135v-15c0-24.813 20.187-45 45-45h240c24.813 0 45 20.187 45 45v15h-135c-8.284 0-15 6.716-15 15v120c0 8.284 6.716 15 15 15h135v15c0 24.813-20.186 44.999-44.998 45-.002 0-240.002 0-240.004 0z" fill="url(#SVGID_1_)"/></g></g></svg>